<svg xmlns="http://www.w3.org/2000/svg" width="190" height="65">
  <style>
		.eye, .bubble {
			fill: #fff;
		}
		.eyeball {
			fill: #00f;
		}
		.tailfin, .sidefin {
			fill: #baba23;
		}
		.fishbody {
			fill: #8f8f22;
		}
		.lips {
 			fill: #d1d138;
		}
		.text {
			fill: #fff;

		}
	</style>
  <path
    d="M 1.2945958,26.112186 C 4.5377702,28.849998 8.2988825,33.129399 8.7070214,37.695068 9.130568,42.433094 6.8878054,46.758616 3.2687325,50.888991 7.0055376,50.673575 13.75062,45.704054 16.869964,44.235622 16.779712,39.225626 15.792436,38.089111 17.667257,33.364796 14.007894,30.288186 8.0604145,25.950025 1.2945958,26.112186 Z"
    class="tailfin"
  />
  <path
    d="m 69.347,48.094 c 1.25,0.709 2.667768,1.87631 2.556,3.25 -0.101526,1.247816 -1.412492,2.086037 -2.768492,2.538037 -0.378,1.505 -0.926216,2.533114 -2.052843,2.815612 C 65.845836,57.00753 63.961,55.787 63.639,55.037 c 2.249,-2.161 5.11,-3.569 5.708,-6.943 z" class="fishbody"
  />
  <path
    d="M 41.986328,3.625 37.781956,14.545419 31.888672,5.5371094 31.72249,18.403922 l -6.921709,-6.243766 1.733173,9.79596 c -7.815265,3.645645 -11.579722,9.200933 -11.780048,16.764587 -0.3072,11.598875 11.38208,21.664063 27.244141,21.664063 7.978,0 16.961968,-0.198854 23.007812,-5.228516 C 69.499369,51.418007 72.108686,44.981342 71.9375,39.050781 71.754291,32.703714 67.034975,25.746094 59.353516,21.585938 L 61.201172,14.195312 54.015625,19.015625 53.179688,4.59375 45.265625,15.490234 Z"
    class="lips"
  />
  <path
    d="m 51.403,55.451381 c 0.418413,2.550708 -0.820752,5.46646 -2.658,7.284619 -1.611114,1.594374 -4.145347,2.263945 -6.412,2.264 -2.266967,5.5e-5 -4.789504,-0.681786 -6.413,-2.264 -1.775666,-1.730515 -3.021168,-4.495588 -2.656,-6.948 0.72545,-4.872019 4.612626,-9.977211 9.069,-11.667 4.638952,1.66402 8.286877,6.556343 9.07,11.330381 z"
    class="sidefin"
  />
  <circle r="7" cx="61.718002" cy="42.347" class="eye" />
  <circle r="1.8876016" cx="64.977409" cy="41.246605" class="eyeball" />
  <path
    d="m 86.645789,12.588211 v 14.595704 c 0,1.546212 -0.14948,2.692601 -0.566407,3.49414 -0.400469,0.775829 -1.104357,1.195313 -1.914062,1.195313 -0.501463,0 -0.94442,-0.116288 -1.291016,-0.423829 l -0.0039,-0.0039 -0.0039,-0.0059 c -0.419159,-0.388411 -0.725099,-0.912986 -0.898438,-1.53125 -0.134805,-0.480849 -0.163472,-1.216966 -0.195312,-1.96875 l -5.021485,0.828125 c 0.141333,1.569444 0.401973,2.978744 0.904297,4.052734 0.573364,1.194959 1.367134,2.088494 2.416016,2.714844 1.024577,0.611836 2.547339,0.949219 4.548828,0.949219 1.866434,0 3.350553,-0.490257 4.492187,-1.431641 1.177256,-0.963551 1.924631,-2.09886 2.294922,-3.4375 v -0.0039 c 0.385064,-1.361108 0.597657,-3.449782 0.597657,-6.220703 V 12.588211 Z m 35.216791,0 0.002,23.460938 h 5.36914 v -9.115234 h 3.87695 c 2.45176,0 4.19638,-0.678285 5.30664,-1.945313 1.13481,-1.285363 1.70508,-3.045019 1.70508,-5.414063 0,-2.308291 -0.5261,-3.989409 -1.55664,-5.179687 l -0.002,-0.002 c -1.01241,-1.178924 -2.57244,-1.804688 -4.76367,-1.804688 z m 51.21094,0 v 23.460938 h 4.83398 v -4.304688 l 2.69141,-3.203125 3.12109,7.507813 h 5.26368 l -5.3418,-11.103516 4.71484,-5.589844 h -5.59179 l -4.85743,6.828126 V 12.588211 Z m -56.00977,0.347657 -4.72265,2.9375 v 3.482421 h -2.07031 v 3.873047 h 2.07031 v 6.81836 c 0,1.94915 0.16721,3.342189 0.43164,4.101562 l 0.002,0.002 c 0.28648,0.783614 0.6995,1.334128 1.27539,1.712891 0.54481,0.358323 1.51542,0.587891 2.875,0.587891 1.04386,0 2.19236,-0.195497 3.39258,-0.484375 l -0.31445,-3.56836 c -0.486,0.15632 -0.98196,0.328125 -1.33985,0.328125 -0.56283,0 -1.08963,-0.289049 -1.35742,-0.841797 -0.22373,-0.459799 -0.24219,-0.992391 -0.24219,-1.787109 v -6.867188 h 3.0918 v -3.875 h -3.0918 z m 10.16993,3.542968 H 129.47 c 1.22555,0 2.14536,0.25359 2.71289,0.972657 0.49834,0.631409 0.76172,1.448582 0.76172,2.341796 0,0.930215 -0.31184,1.771124 -0.88672,2.376954 l -0.002,0.002 h -0.002 c -0.62819,0.647638 -1.5749,0.886719 -2.83203,0.886719 h -1.53321 -0.45507 z m -25.58594,2.47461 c -2.500217,4.38e-4 -4.391737,0.819024 -5.767577,2.425781 -1.374979,1.617045 -2.05664,3.693189 -2.05664,6.357422 0,1.870099 0.342968,3.460817 1.021484,4.818359 l 0.002,0.0039 c 0.697902,1.36499 1.554702,2.3377 2.585932,2.958984 h 0.002 c 1.01974,0.603275 2.48085,0.933594 4.378901,0.933594 2.19262,0 3.84298,-0.387666 4.93555,-1.091797 0.92225,-0.603582 1.71844,-1.620417 2.4375,-2.908203 l -4.54101,-0.509766 c -0.30071,0.422418 -0.59378,0.812803 -0.90625,1.03125 l -0.004,0.002 -0.004,0.002 c -0.55916,0.377191 -1.1673,0.570313 -1.79492,0.570313 -0.98206,0 -1.84412,-0.46309 -2.464841,-1.341797 -3.3e-4,-5e-4 3.1e-4,-0.0035 0,-0.0039 -0.47362,-0.658016 -0.73445,-1.58483 -0.8418,-2.746094 l -0.05664,-0.613281 h 11.314451 v -0.21875 c 0,-1.686189 -0.17271,-3.112619 -0.49804,-4.291016 h -0.0254 v -0.0957 c -0.10966,-0.382848 -0.23434,-0.739588 -0.37696,-1.06836 -0.5945,-1.370478 -1.44336,-2.39837 -2.58203,-3.121093 -1.11895,-0.71021 -2.70507,-1.093494 -4.75586,-1.09375 z m 64.83203,0 c -1.09432,0 -1.99189,0.246098 -2.71289,0.708984 h -0.002 l -0.002,0.002 c -0.72482,0.455218 -1.47418,1.242557 -2.22851,2.384766 l -0.8086,1.220703 v -3.914063 h -4.32226 v 16.69336 h 4.70898 v -7.994141 c 0,-1.678015 0.19316,-2.912961 0.73828,-3.71875 0.49895,-0.737536 1.21061,-1.138672 2.00586,-1.138672 0.7106,0 1.34522,0.298689 1.77539,0.890625 h 0.002 c 0.46018,0.623323 0.62304,1.545058 0.62304,2.726563 v 9.234375 h 4.73828 V 25.289383 c 0,-2.261891 -0.42788,-3.834423 -1.20117,-4.8125 v -0.002 l -0.002,-0.002 c -0.78198,-1.009473 -1.84812,-1.519531 -3.3125,-1.519531 z m -26.80078,0.402343 V 30.13118 c 0,2.249709 0.41955,3.824245 1.18555,4.814453 l 0.002,0.002 c 0.79127,0.998345 1.85907,1.503907 3.3125,1.503907 1.10516,0 2.00429,-0.23997 2.71484,-0.691407 h 0.002 v -0.002 c 0.72481,-0.455217 1.3299,-0.783626 2.22851,-1.565122 l 0.80859,-0.934086 v 2.790224 h 4.33594 v -16.69336 h -4.70898 v 8.009766 c 0,1.678309 -0.19827,2.917699 -0.75391,3.722656 v 0.002 c -0.49774,0.732934 -1.20631,1.132812 -1.99219,1.132812 -0.7112,0 -1.34519,-0.29573 -1.77539,-0.888672 -0.45846,-0.631914 -0.62304,-1.55912 -0.62304,-2.74414 v -9.234376 z m -37.79688,2.533204 c 0.86462,0 1.62633,0.340926 2.1836,1.017578 0.58906,0.70367 0.89744,1.7763 1.01367,3.164062 l 0.0527,0.607422 h -6.541007 l 0.05273,-0.607422 c 0.09726,-1.121965 0.32355,-2.019398 0.74024,-2.675781 0.60664,-0.974791 1.487347,-1.505859 2.498037,-1.505859 z"
    class="text"
  />
</svg>
