<svg xmlns="http://www.w3.org/2000/svg" xmlns:xlink="http://www.w3.org/1999/xlink" width="690.949" height="950.122" viewBox="0 0 647.76429 890.73926" id="svg2"><defs id="defs4"><linearGradient id="linearGradient3526"><stop offset="0" id="stop3528" stop-color="#8b4513"/><stop offset="1" id="stop3530" stop-color="#8b4513" stop-opacity="0"/></linearGradient><linearGradient xlink:href="#linearGradient3526" id="linearGradient3532" x1="311.455" y1="875.368" x2="382.802" y2="502.17" gradientUnits="userSpaceOnUse"/></defs><g id="layer1" transform="translate(-49.4 -111.212)"><g id="g4362"><g id="g4638"><path d="M262.06 146.809c-17.935 24.1-19.473 54.638-8.796 81.84 10.322 26.297 32.19 49.511 61.205 59.212 1.19 11.314 3.588 23.125 6.717 35.145 9.47 36.388 27.383 80.013 38.382 116.4 4.765 15.763 8.45 30.674 10.368 44.446-10.183-6.677-20.774-11.668-31.358-15.62-21.524-8.036-46.37-12.81-65.474-18.591-20.191-6.11-38.319-14.267-51.792-30.682-13.62-16.596-22.8-42.016-23.738-82.807-.93 40.521 6.26 67.297 19.254 86.17 11.727 17.034 27.945 27.275 46.037 35.164-14.052 6.897-25.346 17.022-36.486 24.955-7.256 5.168-14.8 9.726-23.52 12.5-8.734 2.779-18.766 3.805-30.95 1.74 12.035 2.78 22.265 2.54 31.528.374 9.277-2.17 17.456-6.237 25.336-10.94 15.152-9.04 27.907-19.38 45.157-24.13 19.905 7.598 38.4 12.533 58.144 21.788 14.324 6.715 27.544 15.075 39.045 27.03-.597 7.887-2.161 14.82-4.691 20.845-16.386 43.74-31.582 79.865-45.563 115.43a1742.023 1742.023 0 0 0-7.181 18.598c-23.852-13.788-45.993-22.1-66.026-27.893 12.83-16.597 18.928-34.431 20.666-52.66 2.005-21.022-1.705-43.021-7.635-65.115 3.07 23.019 3.52 44.39-1.214 63.61-4.682 19.002-14.282 35.33-30.903 49.155-21.904-5.262-38.945-7.903-55.029-13.416-9.008-3.087-17.036-6.946-24.113-12.482-7.096-5.551-13.508-13-18.98-23.475-11.06-21.17-17.905-53.934-19.313-105.927-1.397 51.562 2.516 85.682 11.634 109.377 4.614 11.99 10.626 21.497 18.133 29.328 7.514 7.837 16.277 13.733 26.028 18.662 6.56 3.316 13.829 6.28 21.523 9.13-10.238 14.419-23.673 22.532-38.828 25.186-16.913 2.962-35.818-.935-53.584-10.572 16.436 11.397 35.534 18.091 54.355 17.123 18.306-.942 36.373-9.192 50.663-27.252 10.32 3.572 21.061 7.15 31.783 11.246 21.448 8.193 44.68 19.016 69.552 36.977-6.105 17.715-11.54 35.388-16.058 53.486-8.718 34.925-14.009 71.307-14.264 112.438-.255 41.154 4.535 86.418 15.475 139.35l90.053-1.116c-13.208-47.859-31.532-105.607-34.512-140.93-2.985-35.376-1.656-66.86 2.97-98.256 4.518-30.653 12.196-61.274 22.088-95.377 16.17-7.42 32.852-10.881 50.006-11.2 19.294-.36 39.004 3.248 58.834 9.511 40.827 12.893 79.956 36.268 114.366 55.742-31.432-22.805-69.193-50.642-109.729-68.139-.62-.267-1.244-.526-1.865-.789 11.409-1.791 22.085-4.587 31.717-8.859 16.995-7.538 30.191-19.407 38.714-37.465-10.358 17.014-24.582 26.497-40.945 31.541-16.422 5.063-35.584 5.837-56.434 4.664l-.004.524c-11.064-3.166-22.391-5.42-33.921-6.422-13.803-1.199-27.936-.612-42.24 2.312 4.53-14.935 8.99-29.282 13.792-44.89 27.52-16.612 51.998-24.631 73.768-29.514 13.687-3.07 26.114-4.875 37.955-6.885 11.663-1.979 22.659-4.142 32.469-7.97 4.189-1.635 8.136-3.57 11.84-5.899 12.832 10.61 24.847 16.362 36.234 18.242 11.61 1.917 22.139-.25 31.842-4.83 19.49-9.199 36.671-28.72 53.64-46.916-18.628 17.373-36.424 34.868-55.697 42.067-9.252 3.456-18.573 4.412-28.252 2.01-9.03-2.242-18.745-7.504-29.383-16.958a58.556 58.556 0 0 0 5.514-5.804c7.094-8.566 12.501-19.854 16.586-35.034 8.119-30.171 11.397-77.323 10.283-152.3-1.119 75.3-6.693 121.656-16.687 150.33-4.975 14.273-10.924 23.785-17.56 30.209-6.56 6.348-14.044 9.92-22.567 12.158-8.682 2.279-18.591 3.213-30.285 4.07-8.409.617-17.776 1.201-27.905 2.285 7.258-9.31 12.253-19.852 15.621-30.937 6.552-21.563 7.234-46 6.082-69.326-1.165 23.607-4.235 47.145-12.623 66.967-6.314 14.921-15.435 27.225-28.474 35.976-15.91 2.756-33.395 7.277-52.412 15.184 1.478-4.951 2.981-10.007 4.572-15.422 5.379-18.805 4.634-38.458 1.094-57.432-3.524-18.88-10.058-38.306-17.592-57.351 12.65-13.29 25.795-25.235 39.033-37.094 17.503-15.68 34.977-31.046 50.416-48.451 9.158-10.325 17.557-21.333 24.916-33.555 19.11 4.766 34.24 1.128 46.215-6.516 11.996-7.656 21.065-19.432 28.55-31.07-9.284 10.685-19.449 20.409-31.433 25.768-10.903 4.875-23.01 6.001-37.4 1.256a195.946 195.946 0 0 0 8.236-17.952c9.77-24.48 15.758-53.55 16.691-90.021-3.117 36.412-11.26 64.55-22.666 87.344-11.373 22.73-26.059 40.277-42.498 55.611-16.267 15.174-34.371 28.3-53.39 42.441-11.899 8.847-24.231 18.15-36.518 28.55-13.423-31.016-27.508-59.603-38.035-88.997-6.25-17.452-10.532-33.583-11.64-48.17-1.097-14.422.91-27.316 7.591-38.414 6.74-11.195 18.552-21.057 37.778-28.338 19.222-7.28 45.31-11.76 79.937-12.61-4.31-.105-8.5-.155-12.57-.15-28.492.042-51.163 2.794-68.963 7.92-20.363 5.865-34.912 15.008-44.533 27.383-9.679 12.449-13.969 27.678-14.518 44.516-.062 1.91-.07 3.844-.039 5.795-23.926-7.592-43.814-25.96-54.746-48.772-11.765-24.55-13.036-54.217 3.144-79.388z" id="path3336"/><path id="path3510" d="M262.06 146.809c-17.935 24.1-19.473 54.638-8.796 81.84 10.322 26.297 32.19 49.511 61.205 59.212 1.19 11.314 3.588 23.125 6.717 35.145 9.47 36.388 27.383 80.013 38.382 116.4 4.765 15.763 8.45 30.674 10.368 44.446-10.183-6.677-20.774-11.668-31.358-15.62-21.524-8.036-46.37-12.81-65.474-18.591-20.191-6.11-38.319-14.267-51.792-30.682-13.62-16.596-22.8-42.016-23.738-82.807-.93 40.521 6.26 67.297 19.254 86.17 11.727 17.034 27.945 27.275 46.037 35.164-14.052 6.897-25.346 17.022-36.486 24.955-7.256 5.168-14.8 9.726-23.52 12.5-8.734 2.779-18.766 3.805-30.95 1.74 12.035 2.78 22.265 2.54 31.528.374 9.277-2.17 17.456-6.237 25.336-10.94 15.152-9.04 27.907-19.38 45.157-24.13 19.905 7.598 38.4 12.533 58.144 21.788 14.324 6.715 27.544 15.075 39.045 27.03-.597 7.887-2.161 14.82-4.691 20.845-16.386 43.74-31.582 79.865-45.563 115.43a1742.023 1742.023 0 0 0-7.181 18.598c-23.852-13.788-45.993-22.1-66.026-27.893 12.83-16.597 18.928-34.431 20.666-52.66 2.005-21.022-1.705-43.021-7.635-65.115 3.07 23.019 3.52 44.39-1.214 63.61-4.682 19.002-14.282 35.33-30.903 49.155-21.904-5.262-38.945-7.903-55.029-13.416-9.008-3.087-17.036-6.946-24.113-12.482-7.096-5.551-13.508-13-18.98-23.475-11.06-21.17-17.905-53.934-19.313-105.927-1.397 51.562 2.516 85.682 11.634 109.377 4.614 11.99 10.626 21.497 18.133 29.328 7.514 7.837 16.277 13.733 26.028 18.662 6.56 3.316 13.829 6.28 21.523 9.13-10.238 14.419-23.673 22.532-38.828 25.186-16.913 2.962-35.818-.935-53.584-10.572 16.436 11.397 35.534 18.091 54.355 17.123 18.306-.942 36.373-9.192 50.663-27.252 10.32 3.572 21.061 7.15 31.783 11.246 21.448 8.193 44.68 19.016 69.552 36.977-6.105 17.715-11.54 35.388-16.058 53.486-8.718 34.925-14.009 71.307-14.264 112.438-.255 41.154 4.535 86.418 15.475 139.35l90.053-1.116c-13.208-47.859-31.532-105.607-34.512-140.93-2.985-35.376-1.656-66.86 2.97-98.256 4.518-30.653 12.196-61.274 22.088-95.377 16.17-7.42 32.852-10.881 50.006-11.2 19.294-.36 39.004 3.248 58.834 9.511 40.827 12.893 79.956 36.268 114.366 55.742-31.432-22.805-69.193-50.642-109.729-68.139-.62-.267-1.244-.526-1.865-.789 11.409-1.791 22.085-4.587 31.717-8.859 16.995-7.538 30.191-19.407 38.714-37.465-10.358 17.014-24.582 26.497-40.945 31.541-16.422 5.063-35.584 5.837-56.434 4.664l-.004.524c-11.064-3.166-22.391-5.42-33.921-6.422-13.803-1.199-27.936-.612-42.24 2.312 4.53-14.935 8.99-29.282 13.792-44.89 27.52-16.612 51.998-24.631 73.768-29.514 13.687-3.07 26.114-4.875 37.955-6.885 11.663-1.979 22.659-4.142 32.469-7.97 4.189-1.635 8.136-3.57 11.84-5.899 12.832 10.61 24.847 16.362 36.234 18.242 11.61 1.917 22.139-.25 31.842-4.83 19.49-9.199 36.671-28.72 53.64-46.916-18.628 17.373-36.424 34.868-55.697 42.067-9.252 3.456-18.573 4.412-28.252 2.01-9.03-2.242-18.745-7.504-29.383-16.958a58.556 58.556 0 0 0 5.514-5.804c7.094-8.566 12.501-19.854 16.586-35.034 8.119-30.171 11.397-77.323 10.283-152.3-1.119 75.3-6.693 121.656-16.687 150.33-4.975 14.273-10.924 23.785-17.56 30.209-6.56 6.348-14.044 9.92-22.567 12.158-8.682 2.279-18.591 3.213-30.285 4.07-8.409.617-17.776 1.201-27.905 2.285 7.258-9.31 12.253-19.852 15.621-30.937 6.552-21.563 7.234-46 6.082-69.326-1.165 23.607-4.235 47.145-12.623 66.967-6.314 14.921-15.435 27.225-28.474 35.976-15.91 2.756-33.395 7.277-52.412 15.184 1.478-4.951 2.981-10.007 4.572-15.422 5.379-18.805 4.634-38.458 1.094-57.432-3.524-18.88-10.058-38.306-17.592-57.351 12.65-13.29 25.795-25.235 39.033-37.094 17.503-15.68 34.977-31.046 50.416-48.451 9.158-10.325 17.557-21.333 24.916-33.555 19.11 4.766 34.24 1.128 46.215-6.516 11.996-7.656 21.065-19.432 28.55-31.07-9.284 10.685-19.449 20.409-31.433 25.768-10.903 4.875-23.01 6.001-37.4 1.256a195.946 195.946 0 0 0 8.236-17.952c9.77-24.48 15.758-53.55 16.691-90.021-3.117 36.412-11.26 64.55-22.666 87.344-11.373 22.73-26.059 40.277-42.498 55.611-16.267 15.174-34.371 28.3-53.39 42.441-11.899 8.847-24.231 18.15-36.518 28.55-13.423-31.016-27.508-59.603-38.035-88.997-6.25-17.452-10.532-33.583-11.64-48.17-1.097-14.422.91-27.316 7.591-38.414 6.74-11.195 18.552-21.057 37.778-28.338 19.222-7.28 45.31-11.76 79.937-12.61-4.31-.105-8.5-.155-12.57-.15-28.492.042-51.163 2.794-68.963 7.92-20.363 5.865-34.912 15.008-44.533 27.383-9.679 12.449-13.969 27.678-14.518 44.516-.062 1.91-.07 3.844-.039 5.795-23.926-7.592-43.814-25.96-54.746-48.772-11.765-24.55-13.036-54.217 3.144-79.388z" fill="url(#linearGradient3532)"/><g id="g3395" transform="matrix(.43055 0 0 .43055 559.414 245.541)" fill="#6b8e23"><path id="path3361" d="M-153.64 354.086a41.79 55.282 0 0 0-21.983 48.622A41.79 55.282 0 0 0-153.7 451.33a41.79 55.282 0 0 0 21.983-48.622 41.79 55.282 0 0 0-21.922-48.622z"/><path d="M-241.39 390.408a55.282 41.79 45 0 0 18.837 49.925 55.282 41.79 45 0 0 49.882 18.88 55.282 41.79 45 0 0-18.836-49.926 55.282 41.79 45 0 0-49.883-18.88z" id="path3381"/><path id="path3383" d="M-277.755 478.14a55.282 41.79 0 0 0 48.622 21.984A55.282 41.79 0 0 0-180.51 478.2a55.282 41.79 0 0 0-48.622-21.984 55.282 41.79 0 0 0-48.622 21.923z"/><path d="M-241.433 565.89a41.79 55.282 45 0 0 49.926-18.836 41.79 55.282 45 0 0 18.88-49.883 41.79 55.282 45 0 0-49.926 18.836 41.79 55.282 45 0 0-18.88 49.883z" id="path3385"/><path id="path3387" d="M-153.7 602.255a41.79 55.282 0 0 0 21.983-48.622 41.79 55.282 0 0 0-21.922-48.622 41.79 55.282 0 0 0-21.984 48.622 41.79 55.282 0 0 0 21.923 48.622z"/><path d="M-65.95 565.933a55.282 41.79 45 0 0-18.836-49.926 55.282 41.79 45 0 0-49.883-18.879 55.282 41.79 45 0 0 18.836 49.926 55.282 41.79 45 0 0 49.883 18.88z" id="path3389"/><path id="path3391" d="M-29.585 478.2a55.282 41.79 0 0 0-48.622-21.983 55.282 41.79 0 0 0-48.622 21.923 55.282 41.79 0 0 0 48.622 21.984A55.282 41.79 0 0 0-29.585 478.2z"/><path d="M-65.907 390.45a41.79 55.282 45 0 0-49.926 18.837 41.79 55.282 45 0 0-18.88 49.883 41.79 55.282 45 0 0 49.927-18.837 41.79 55.282 45 0 0 18.879-49.882z" id="path3393"/></g><use id="use3405" xlink:href="#g3395" transform="rotate(58.628 286.794 185.442) scale(.76128)" width="100%" height="100%"/><use id="use3407" xlink:href="#g3395" transform="scale(.62656) rotate(-24.315 1392.608 806.571)" width="100%" height="100%"/><use id="use3409" xlink:href="#g3395" transform="scale(.79003) rotate(-33.428 600.906 1121.007)" width="100%" height="100%"/><use id="use3411" xlink:href="#g3395" transform="rotate(-6.72 2366.472 3580.745) scale(.92361)" width="100%" height="100%"/><use id="use3413" xlink:href="#g3395" transform="rotate(-32.514 272.67 516.629) scale(1.05608)" width="100%" height="100%"/><use id="use3415" xlink:href="#g3395" transform="scale(.77086) rotate(39.35 618.907 827.15)" width="100%" height="100%"/><use id="use3417" xlink:href="#g3395" transform="rotate(-.955 13329.02 -8362.669) scale(.73599)" width="100%" height="100%"/><use id="use3419" xlink:href="#g3395" transform="rotate(25.371 681.44 438.489) scale(.71212)" width="100%" height="100%"/><use id="use3421" xlink:href="#g3395" transform="scale(.89764) rotate(-86.486 412.65 486.314)" width="100%" height="100%"/><use id="use3423" xlink:href="#g3395" transform="matrix(.8389 -.04084 .04084 .8389 146.905 354.426)" width="100%" height="100%"/><use id="use3425" xlink:href="#g3395" transform="rotate(-1.022 -10335.372 6649.888) scale(.76143)" width="100%" height="100%"/><use id="use3429" xlink:href="#g3395" transform="scale(.71385) rotate(36.356 888.513 752.914)" width="100%" height="100%"/><use id="use3431" xlink:href="#g3395" transform="rotate(-12.993 998.992 1176.2) scale(.74473)" width="100%" height="100%"/><use id="use3433" xlink:href="#g3395" transform="rotate(-23.484 932.652 -266.441) scale(.7533)" width="100%" height="100%"/><g transform="matrix(.33103 0 0 .33103 597.63 452.285)" id="g3474" fill="#6b8e23"><path d="M-153.64 354.086a41.79 55.282 0 0 0-21.983 48.622A41.79 55.282 0 0 0-153.7 451.33a41.79 55.282 0 0 0 21.983-48.622 41.79 55.282 0 0 0-21.922-48.622z" id="path3476"/><path id="path3478" d="M-241.39 390.408a55.282 41.79 45 0 0 18.837 49.925 55.282 41.79 45 0 0 49.882 18.88 55.282 41.79 45 0 0-18.836-49.926 55.282 41.79 45 0 0-49.883-18.88z"/><path d="M-277.755 478.14a55.282 41.79 0 0 0 48.622 21.984A55.282 41.79 0 0 0-180.51 478.2a55.282 41.79 0 0 0-48.622-21.984 55.282 41.79 0 0 0-48.622 21.923z" id="path3480"/><path id="path3482" d="M-241.433 565.89a41.79 55.282 45 0 0 49.926-18.836 41.79 55.282 45 0 0 18.88-49.883 41.79 55.282 45 0 0-49.926 18.836 41.79 55.282 45 0 0-18.88 49.883z"/><path d="M-153.7 602.255a41.79 55.282 0 0 0 21.983-48.622 41.79 55.282 0 0 0-21.922-48.622 41.79 55.282 0 0 0-21.984 48.622 41.79 55.282 0 0 0 21.923 48.622z" id="path3484"/><path id="path3486" d="M-65.95 565.933a55.282 41.79 45 0 0-18.836-49.926 55.282 41.79 45 0 0-49.883-18.879 55.282 41.79 45 0 0 18.836 49.926 55.282 41.79 45 0 0 49.883 18.88z"/><path d="M-29.585 478.2a55.282 41.79 0 0 0-48.622-21.983 55.282 41.79 0 0 0-48.622 21.923 55.282 41.79 0 0 0 48.622 21.984A55.282 41.79 0 0 0-29.585 478.2z" id="path3488"/><path id="path3490" d="M-65.907 390.45a41.79 55.282 45 0 0-49.926 18.837 41.79 55.282 45 0 0-18.88 49.883 41.79 55.282 45 0 0 49.927-18.837 41.79 55.282 45 0 0 18.879-49.882z"/></g><g id="g3492" transform="rotate(12.055 -267.409 3187.313) scale(.33103)" fill="#6b8e23"><path id="path3494" d="M-153.64 354.086a41.79 55.282 0 0 0-21.983 48.622A41.79 55.282 0 0 0-153.7 451.33a41.79 55.282 0 0 0 21.983-48.622 41.79 55.282 0 0 0-21.922-48.622z"/><path d="M-241.39 390.408a55.282 41.79 45 0 0 18.837 49.925 55.282 41.79 45 0 0 49.882 18.88 55.282 41.79 45 0 0-18.836-49.926 55.282 41.79 45 0 0-49.883-18.88z" id="path3496"/><path id="path3498" d="M-277.755 478.14a55.282 41.79 0 0 0 48.622 21.984A55.282 41.79 0 0 0-180.51 478.2a55.282 41.79 0 0 0-48.622-21.984 55.282 41.79 0 0 0-48.622 21.923z"/><path d="M-241.433 565.89a41.79 55.282 45 0 0 49.926-18.836 41.79 55.282 45 0 0 18.88-49.883 41.79 55.282 45 0 0-49.926 18.836 41.79 55.282 45 0 0-18.88 49.883z" id="path3500"/><path id="path3502" d="M-153.7 602.255a41.79 55.282 0 0 0 21.983-48.622 41.79 55.282 0 0 0-21.922-48.622 41.79 55.282 0 0 0-21.984 48.622 41.79 55.282 0 0 0 21.923 48.622z"/><path d="M-65.95 565.933a55.282 41.79 45 0 0-18.836-49.926 55.282 41.79 45 0 0-49.883-18.879 55.282 41.79 45 0 0 18.836 49.926 55.282 41.79 45 0 0 49.883 18.88z" id="path3504"/><path id="path3506" d="M-29.585 478.2a55.282 41.79 0 0 0-48.622-21.983 55.282 41.79 0 0 0-48.622 21.923 55.282 41.79 0 0 0 48.622 21.984A55.282 41.79 0 0 0-29.585 478.2z"/><path d="M-65.907 390.45a41.79 55.282 45 0 0-49.926 18.837 41.79 55.282 45 0 0-18.88 49.883 41.79 55.282 45 0 0 49.927-18.837 41.79 55.282 45 0 0 18.879-49.882z" id="path3508"/></g><use height="100%" width="100%" transform="scale(.89764) rotate(-86.486 303.168 467.575)" xlink:href="#g3395" id="use3534"/><use id="use3536" xlink:href="#g3395" transform="scale(.89764) rotate(-86.486 630.634 594.847)" width="100%" height="100%"/><use height="100%" width="100%" transform="matrix(.0424 -.6905 .6905 .0424 249.703 771.661)" xlink:href="#g3395" id="use3538"/><use id="use3540" xlink:href="#g3395" transform="scale(.87191) rotate(-48.673 218.582 452.998)" width="100%" height="100%"/><use height="100%" width="100%" transform="scale(.87191) rotate(-86.486 455.704 572.246)" xlink:href="#g3395" id="use3542"/><use height="100%" width="100%" transform="rotate(6.487 -1658.717 -1877.393) scale(.79129)" xlink:href="#g3395" id="use3544"/><path d="M359.477 986.504c-21.637-20.63-20.487-49.114-28.813-74.09-22.663-67.99 9.604-134.295 9.604-194.832 0-9.428 13.528-34.108 6.86-27.441-48.338 48.339-76.931 290.41 12.35 296.363z" id="path4348" opacity=".1"/><use height="100%" width="100%" transform="rotate(-2.789 6970.551 -1956.7) scale(.78848)" xlink:href="#g3395" id="use4350"/><use height="100%" width="100%" transform="scale(.50604) rotate(45.827 670.644 1112.55)" xlink:href="#g3395" id="use4352"/><use id="use4354" xlink:href="#g3395" transform="scale(.66015) rotate(45.827 230.84 1128.338)" width="100%" height="100%"/><use height="100%" width="100%" transform="scale(.50604) rotate(45.827 -616.638 696.473)" xlink:href="#g3395" id="use4356"/><use id="use4358" xlink:href="#g3395" transform="scale(.50604) rotate(45.827 7.129 580.245)" width="100%" height="100%"/><use height="100%" width="100%" transform="scale(.71152) rotate(45.827 -50.09 497.864)" xlink:href="#g3395" id="use4360"/></g></g></g></svg>